<svg width="16" height="16" viewBox="0 0 16 16" fill="none" xmlns="http://www.w3.org/2000/svg">
<path d="M7.95101 1.468C9.24294 1.468 10.5059 1.8511 11.58 2.56886C12.6542 3.28661 13.4915 4.30679 13.9859 5.50037C14.4803 6.69395 14.6096 8.00734 14.3576 9.27444C14.1056 10.5415 13.4834 11.7055 12.5699 12.619C11.6564 13.5325 10.4925 14.1546 9.22536 14.4067C7.95826 14.6587 6.64487 14.5294 5.45129 14.035C4.2577 13.5406 3.23753 12.7033 2.51978 11.6291C1.80202 10.5549 1.41892 9.29202 1.41892 8.00009C1.42561 6.26973 2.11596 4.61215 3.33952 3.3886C4.56307 2.16504 6.22065 1.47469 7.95101 1.468ZM7.95101 0.0164242C6.3734 0.0228782 4.83306 0.496592 3.52446 1.37776C2.21585 2.25893 1.19765 3.50806 0.598391 4.96744C-0.000868797 6.42682 -0.15432 8.03103 0.15741 9.57755C0.46914 11.1241 1.23208 12.5436 2.3499 13.6568C3.46773 14.7701 4.89033 15.5273 6.43811 15.8327C7.98589 16.1381 9.58946 15.9781 11.0464 15.3729C12.5033 14.7677 13.7483 13.7444 14.6241 12.4322C15.4999 11.12 15.9673 9.57772 15.9673 8.00009C15.9674 6.94891 15.7598 5.90807 15.3565 4.93731C14.9533 3.96655 14.3623 3.08499 13.6174 2.34321C12.8726 1.60143 11.9887 1.01404 11.0163 0.614745C10.0439 0.215454 9.00219 0.0121239 7.95101 0.0164242Z" fill="#F2F2F2"/>
<path d="M11.6743 7.39771H8.46268V4.1861H7.38126V7.39771H4.16602V8.47913H7.38126V11.6907H8.46268V8.47913H11.6743V7.39771Z" fill="#F2F2F2"/>
</svg>
